<svg width="57" height="57" viewBox="0 0 57 57" fill="none" xmlns="http://www.w3.org/2000/svg">
<rect width="57" height="57" rx="14" fill="#FFD482"/>
<path d="M33.8661 45.3198L34.016 45.5H34.2504H42H43.0867L42.3797 44.6747L29.6972 29.8694L42.0311 15.3234L42.7292 14.5H41.6497H34.2504H34.015L33.8651 14.6814L23.6296 27.0631V15V14.5H23.1296H17H16.5V15V45V45.5H17H23.1296H23.6296V45V33.016L33.8661 45.3198Z" fill="#2D3134" stroke="#2D3134"/>
<path d="M46.7701 45.847L46.7703 45.8478C46.8762 46.4682 46.6215 47.0955 46.1121 47.4663L46.7701 45.847ZM46.7701 45.847L45.8933 40.7348L49.6063 37.1153L48.9083 36.3993L49.6088 37.1129C50.0549 36.6749 50.2218 36.0196 50.0251 35.4164C49.8299 34.8175 49.3121 34.3807 48.6883 34.2897L48.6876 34.2896L43.5559 33.5445L41.261 28.8938C40.9424 28.248 40.2966 28 39.7753 28C39.254 28 38.6083 28.248 38.2897 28.8938C38.2897 28.8938 38.2897 28.8938 38.2897 28.8938L35.9947 33.5445L30.8631 34.2896L30.8624 34.2897C30.2374 34.3808 29.7207 34.8192 29.5258 35.4156C29.329 36.0177 29.4949 36.6758 29.9432 37.1142L29.9445 37.1154L33.6581 40.7342L32.7812 45.8463L32.7811 45.8471M46.7701 45.847L32.7811 45.8471M32.7811 45.8471C32.6752 46.4676 32.9299 47.0949 33.4393 47.4658C33.9501 47.8382 34.6278 47.8866 35.1856 47.592C35.1863 47.5917 35.1869 47.5913 35.1876 47.591L39.7753 45.1795L44.3654 47.5925C44.3656 47.5926 44.3658 47.5928 44.3661 47.5929C44.6087 47.7207 44.874 47.7835 45.1372 47.7835C45.4776 47.7835 45.8208 47.6785 46.1114 47.4668L32.7811 45.8471Z" fill="url(#paint0_linear_8_15)" stroke="#FFD482" stroke-width="2"/>
<defs>
<linearGradient id="paint0_linear_8_15" x1="39.7753" y1="29" x2="39.7753" y2="46.7835" gradientUnits="userSpaceOnUse">
<stop stop-color="#FF9D43"/>
<stop offset="1" stop-color="#F66F4D"/>
</linearGradient>
</defs>
</svg>
