<svg width="20" height="20" viewBox="0 0 20 20" fill="none" xmlns="http://www.w3.org/2000/svg">
<path d="M17.2917 9.37501H2.70833C2.25 9.37501 1.875 9.00001 1.875 8.54168V2.54168C1.875 1.25001 2.91667 0.208344 4.20833 0.208344H15.7917C17.0833 0.208344 18.125 1.25001 18.125 2.54168V8.54168C18.125 9.00001 17.75 9.37501 17.2917 9.37501ZM3.5 7.75001H16.4583V2.54168C16.4583 2.16668 16.1667 1.83334 15.75 1.83334H4.20833C3.83333 1.83334 3.5 2.12501 3.5 2.54168V7.75001Z" fill="#F66F4D"/>
<path d="M18.958 17.375H1.04134C0.583008 17.375 0.208008 17 0.208008 16.5417V8.54168C0.208008 8.08334 0.583008 7.70834 1.04134 7.70834H18.9997C19.458 7.70834 19.833 8.08334 19.833 8.54168V16.5834C19.7913 17 19.4163 17.375 18.958 17.375ZM1.83301 15.75H18.1663V9.37501H1.83301V15.75Z" fill="#F66F4D"/>
<path d="M9.7915 9.37502H5.24984C4.7915 9.37502 4.4165 9.00002 4.4165 8.54169C4.4165 6.45835 5.7915 4.79169 7.49984 4.79169C9.20817 4.79169 10.5832 6.45835 10.5832 8.54169C10.5832 9.00002 10.2498 9.37502 9.7915 9.37502ZM6.20817 7.75002H8.87484C8.6665 7.00002 8.12484 6.45835 7.5415 6.45835C6.95817 6.45835 6.4165 6.95835 6.20817 7.75002Z" fill="#F66F4D"/>
<path d="M14.75 9.37502H10.2083C9.75 9.37502 9.375 9.00002 9.375 8.54169C9.375 6.45835 10.75 4.79169 12.4583 4.79169C14.1667 4.79169 15.5417 6.45835 15.5417 8.54169C15.5417 9.00002 15.1667 9.37502 14.75 9.37502ZM11.1667 7.75002H13.8333C13.625 7.00002 13.0833 6.45835 12.5 6.45835C11.875 6.41669 11.375 6.95835 11.1667 7.75002Z" fill="#F66F4D"/>
<path d="M1.04134 19.7917C0.583008 19.7917 0.208008 19.4167 0.208008 18.9583V16.5417C0.208008 16.0833 0.583008 15.7083 1.04134 15.7083C1.49967 15.7083 1.87467 16.0833 1.87467 16.5417V18.9583C1.83301 19.4167 1.45801 19.7917 1.04134 19.7917Z" fill="#F66F4D"/>
<path d="M18.9583 19.7917C18.5 19.7917 18.125 19.4167 18.125 18.9583V16.5417C18.125 16.0833 18.5 15.7083 18.9583 15.7083C19.4167 15.7083 19.7917 16.0833 19.7917 16.5417V18.9583C19.7917 19.4167 19.4167 19.7917 18.9583 19.7917Z" fill="#F66F4D"/>
</svg>
