<svg width="16" height="18" viewBox="0 0 16 18" fill="none" xmlns="http://www.w3.org/2000/svg">
<path fill-rule="evenodd" clip-rule="evenodd" d="M10.6667 1.8V0.9C10.6667 0.4032 11.0649 0 11.5556 0C12.0462 0 12.4444 0.4032 12.4444 0.9V1.8C14.408 1.8 16 3.4119 16 5.4V14.4C16 16.3881 14.408 18 12.4444 18C9.90222 18 6.09689 18 3.55556 18C1.592 18 0 16.3881 0 14.4V5.4C0 3.4119 1.592 1.8 3.55556 1.8V0.9C3.55556 0.4032 3.95378 0 4.44444 0C4.93511 0 5.33333 0.4032 5.33333 0.9V1.8H10.6667ZM14.2222 9H1.77778V14.4C1.77778 15.3936 2.57333 16.2 3.55556 16.2H12.4444C13.4258 16.2 14.2222 15.3936 14.2222 14.4V9ZM12.4444 3.6V4.5C12.4444 4.9968 12.0462 5.4 11.5556 5.4C11.0649 5.4 10.6667 4.9968 10.6667 4.5V3.6H5.33333V4.5C5.33333 4.9968 4.93511 5.4 4.44444 5.4C3.95378 5.4 3.55556 4.9968 3.55556 4.5V3.6C2.57333 3.6 1.77778 4.4055 1.77778 5.4V7.2H14.2222V5.4C14.2222 4.4055 13.4258 3.6 12.4444 3.6Z" fill="#F66F4D"/>
</svg>
