<svg width="22" height="22" viewBox="0 0 22 22" fill="none" xmlns="http://www.w3.org/2000/svg">
<path d="M1.99217 0.988199C1.84446 0.987326 1.69838 1.01921 1.56445 1.08151C1.43051 1.14381 1.31204 1.23498 1.21755 1.34853C1.12306 1.46207 1.05489 1.59513 1.01795 1.73815C0.981007 1.88118 0.976206 2.03066 1.00389 2.17576V6.00189C0.991475 6.1402 1.008 6.27954 1.05242 6.41112C1.09683 6.5427 1.16816 6.66365 1.26187 6.76614C1.35557 6.86864 1.4696 6.95051 1.59668 7.00651C1.72376 7.06252 1.86111 7.09141 1.99999 7.09141C2.13886 7.09141 2.27621 7.06252 2.40329 7.00651C2.53037 6.95051 2.6444 6.86864 2.7381 6.76614C2.83181 6.66365 2.90314 6.5427 2.94756 6.41112C2.99197 6.27954 3.0085 6.1402 2.99608 6.00189V4.41397L8.28905 9.7069C8.4772 9.89436 8.73205 9.99954 8.99765 9.99929C9.26324 9.99905 9.51789 9.89344 9.7057 9.70563C9.8935 9.51783 9.99912 9.26315 9.99937 8.99755C9.99962 8.73195 9.89447 8.47716 9.70702 8.289L4.41405 2.99596H6.00194C6.13511 2.99887 6.26751 2.97523 6.39139 2.92629C6.51527 2.87735 6.62813 2.8041 6.72334 2.71095C6.81855 2.6178 6.8942 2.50662 6.94585 2.38384C6.99749 2.26106 7.0241 2.12926 7.0241 1.99606C7.0241 1.86286 6.99749 1.73094 6.94585 1.60816C6.8942 1.48538 6.81855 1.3742 6.72334 1.28105C6.62813 1.1879 6.51527 1.11465 6.39139 1.06571C6.26751 1.01676 6.13511 0.993124 6.00194 0.996042H2.10155C2.06526 0.991524 2.02874 0.988947 1.99217 0.988429L1.99217 0.988199ZM19.9824 0.988199C19.9556 0.989643 19.9289 0.992103 19.9023 0.995696H16.0039C15.8707 0.992778 15.7383 1.01653 15.6144 1.06548C15.4906 1.11442 15.3777 1.18756 15.2825 1.28071C15.1873 1.37385 15.1116 1.48515 15.06 1.60793C15.0083 1.73071 14.9817 1.86251 14.9817 1.99571C14.9817 2.12891 15.0083 2.26083 15.06 2.38361C15.1116 2.50638 15.1873 2.61757 15.2825 2.71072C15.3777 2.80386 15.4906 2.87712 15.6144 2.92606C15.7383 2.975 15.8707 2.99864 16.0039 2.99573H17.5879L12.291 8.28866C12.1096 8.47779 12.0096 8.73045 12.0122 8.99247C12.0149 9.2545 12.1201 9.5051 12.3052 9.69052C12.4904 9.87594 12.7408 9.98151 13.0028 9.98453C13.2648 9.98755 13.5176 9.88778 13.707 9.70667L19 4.41351V6.00142C19 6.2669 19.1054 6.52144 19.2932 6.70916C19.4809 6.89688 19.7355 7.00236 20.001 7.00236C20.2664 7.00236 20.521 6.89688 20.7088 6.70916C20.8965 6.52144 21.0019 6.2669 21.0019 6.00142V2.12051C21.0212 1.97683 21.0091 1.83076 20.9663 1.69225C20.9235 1.55374 20.8511 1.42618 20.7541 1.31842C20.6571 1.21067 20.5379 1.12523 20.4046 1.06813C20.2714 1.01103 20.1273 0.98363 19.9824 0.987737V0.988199ZM8.98241 11.9881C8.72056 11.9944 8.47161 12.1031 8.28905 12.2909L2.99608 17.5897V14.9999C2.99865 14.8576 2.97078 14.7162 2.91433 14.5854C2.85788 14.4547 2.77415 14.3375 2.66875 14.2417C2.56335 14.1459 2.43871 14.0738 2.30316 14.03C2.16762 13.9863 2.0243 13.972 1.8828 13.9882C1.63707 14.0181 1.41117 14.1382 1.24882 14.3251C1.08647 14.512 0.999201 14.7524 1.00389 14.9999V19.7968C0.965367 19.9613 0.969135 20.1329 1.01484 20.2955C1.06055 20.4582 1.14671 20.6065 1.26529 20.7268C1.38386 20.8471 1.53099 20.9355 1.69293 20.9835C1.85487 21.0316 2.02636 21.038 2.19139 21.0019H6.99803C7.1312 21.0048 7.26361 20.981 7.38749 20.9321C7.51137 20.8832 7.62422 20.81 7.71944 20.7169C7.81465 20.6237 7.89029 20.5124 7.94194 20.3896C7.99359 20.2669 8.02019 20.1351 8.02019 20.0019C8.02019 19.8687 7.99359 19.7369 7.94194 19.6141C7.89029 19.4913 7.81465 19.38 7.71944 19.2869C7.62422 19.1937 7.51137 19.1206 7.38749 19.0716C7.26361 19.0227 7.1312 18.9989 6.99803 19.0019H4.41405L9.70702 13.7089C9.85281 13.5688 9.9527 13.3878 9.99354 13.1898C10.0344 12.9917 10.0142 12.786 9.93576 12.5997C9.85729 12.4133 9.72417 12.2551 9.55398 12.1459C9.38378 12.0368 9.1845 11.9817 8.98241 11.9881V11.9881ZM12.9922 11.9881C12.7921 11.9866 12.5961 12.0452 12.4297 12.1562C12.2632 12.2672 12.1338 12.4256 12.0583 12.6109C11.9828 12.7962 11.9646 12.9999 12.0061 13.1957C12.0476 13.3914 12.1468 13.5702 12.291 13.7089L17.5879 19.0019H15C14.7386 19.0076 14.4898 19.1154 14.3069 19.3023C14.124 19.4892 14.0217 19.7404 14.0217 20.0019C14.0217 20.2634 14.124 20.5144 14.3069 20.7013C14.4898 20.8882 14.7386 20.9962 15 21.0019H19.7305C19.9071 21.0623 20.0971 21.0721 20.279 21.0301C20.4609 20.9882 20.6274 20.8961 20.7597 20.7644C20.892 20.6327 20.9849 20.4666 21.0277 20.2849C21.0705 20.1032 21.0616 19.9131 21.0019 19.7362V14.9999C21.0045 14.8574 20.9766 14.7159 20.9201 14.5849C20.8635 14.454 20.7796 14.3367 20.674 14.2409C20.5683 14.1451 20.4435 14.0729 20.3077 14.0293C20.1719 13.9858 20.0284 13.9717 19.8867 13.9882C19.6396 14.0163 19.4118 14.1356 19.2478 14.3227C19.0839 14.5097 18.9955 14.7512 19 14.9999V17.5897L13.707 12.2909C13.6141 12.1953 13.5029 12.1194 13.3802 12.0674C13.2574 12.0154 13.1255 11.9884 12.9922 11.9881V11.9881Z" fill="white"/>
</svg>
