<svg width="36" height="36" viewBox="0 0 36 36" fill="none" xmlns="http://www.w3.org/2000/svg">
<path d="M34.5 28.5C34.5 28.8978 34.342 29.2793 34.0607 29.5606C33.7794 29.8419 33.3978 30 33 30H15C14.6022 30 14.2206 29.8419 13.9393 29.5606C13.658 29.2793 13.5 28.8978 13.5 28.5C13.5 26.113 14.4482 23.8238 16.136 22.136C17.8239 20.4482 20.1131 19.5 22.5 19.5H25.5C27.8869 19.5 30.1761 20.4482 31.864 22.136C33.5518 23.8238 34.5 26.113 34.5 28.5ZM24 6C22.8133 6 21.6533 6.35189 20.6666 7.01118C19.6799 7.67047 18.9108 8.60754 18.4567 9.7039C18.0026 10.8003 17.8838 12.0066 18.1153 13.1705C18.3468 14.3344 18.9182 15.4035 19.7574 16.2426C20.5965 17.0817 21.6656 17.6532 22.8295 17.8847C23.9933 18.1162 25.1997 17.9974 26.2961 17.5433C27.3925 17.0891 28.3295 16.3201 28.9888 15.3334C29.6481 14.3467 30 13.1867 30 12C30 10.4087 29.3679 8.88257 28.2426 7.75736C27.1174 6.63214 25.5913 6 24 6ZM10.5 6C9.31331 6 8.15327 6.35189 7.16658 7.01118C6.17988 7.67047 5.41085 8.60754 4.95672 9.7039C4.5026 10.8003 4.38378 12.0066 4.61529 13.1705C4.8468 14.3344 5.41824 15.4035 6.25736 16.2426C7.09647 17.0817 8.16557 17.6532 9.32946 17.8847C10.4933 18.1162 11.6997 17.9974 12.7961 17.5433C13.8925 17.0891 14.8295 16.3201 15.4888 15.3334C16.1481 14.3467 16.5 13.1867 16.5 12C16.5 10.4087 15.8679 8.88257 14.7426 7.75736C13.6174 6.63214 12.0913 6 10.5 6ZM10.5 28.5C10.4978 26.9244 10.8082 25.364 11.4133 23.9093C12.0183 22.4545 12.9061 21.1342 14.025 20.025C13.1093 19.6793 12.1388 19.5014 11.16 19.5H9.84C7.62931 19.504 5.5103 20.3839 3.94711 21.9471C2.38391 23.5103 1.50397 25.6293 1.5 27.84V28.5C1.5 28.8978 1.65804 29.2793 1.93934 29.5606C2.22064 29.8419 2.60218 30 3 30H10.77C10.5954 29.519 10.5041 29.0117 10.5 28.5Z" fill="#F66F4D"/>
</svg>
