<svg width="20" height="20" viewBox="0 0 20 20" fill="none" xmlns="http://www.w3.org/2000/svg">
<path d="M10.4425 1.09749L13.12 6.52749C13.1552 6.59866 13.2069 6.66034 13.2708 6.70733C13.3348 6.75432 13.4091 6.78524 13.4875 6.79749L19.4875 7.66749C19.5756 7.68405 19.6575 7.7242 19.7245 7.78366C19.7916 7.84311 19.8412 7.91965 19.8682 8.00511C19.8951 8.09057 19.8983 8.18173 19.8775 8.26889C19.8567 8.35604 19.8127 8.43592 19.75 8.49999L15.415 12.7225C15.358 12.7782 15.3153 12.8468 15.2905 12.9225C15.2657 12.9983 15.2595 13.0789 15.2725 13.1575L16.2925 19.1575C16.3121 19.2527 16.3031 19.3515 16.2669 19.4416C16.2307 19.5317 16.1687 19.6092 16.0887 19.6644C16.0088 19.7196 15.9144 19.75 15.8172 19.7519C15.7201 19.7538 15.6246 19.727 15.5425 19.675L10.1875 16.855C10.1169 16.8182 10.0384 16.799 9.95878 16.799C9.87913 16.799 9.80066 16.8182 9.73003 16.855L4.41253 19.6525C4.33049 19.7045 4.23495 19.7313 4.13782 19.7294C4.0407 19.7275 3.94627 19.6971 3.86631 19.6419C3.78635 19.5867 3.72439 19.5092 3.68816 19.4191C3.65192 19.329 3.64301 19.2302 3.66253 19.135L4.68253 13.135C4.69555 13.0564 4.68939 12.9758 4.66458 12.9C4.63977 12.8243 4.59705 12.7557 4.54003 12.7L0.25003 8.49999C0.185212 8.43565 0.139459 8.35462 0.117834 8.26589C0.0962099 8.17715 0.0995572 8.08417 0.127506 7.99721C0.155454 7.91026 0.206914 7.83274 0.276191 7.77322C0.345468 7.71371 0.42986 7.67452 0.52003 7.65999L6.52003 6.78999C6.59844 6.77774 6.67276 6.74682 6.73672 6.69983C6.80068 6.65284 6.85241 6.59116 6.88753 6.51999L9.56503 1.08999C9.60758 1.01018 9.67119 0.943558 9.74894 0.897352C9.82669 0.851147 9.91561 0.827126 10.0061 0.827899C10.0965 0.828672 10.185 0.854209 10.2619 0.901737C10.3389 0.949264 10.4013 1.01697 10.4425 1.09749Z" fill="#F66F4D"/>
</svg>
