<svg width="22" height="21" viewBox="0 0 22 21" fill="none" xmlns="http://www.w3.org/2000/svg">
<path d="M5.18003 20.5C4.99457 20.5006 4.81132 20.4597 4.64368 20.3804C4.47603 20.3011 4.32823 20.1853 4.21106 20.0415C4.09389 19.8978 4.01032 19.7297 3.96646 19.5495C3.9226 19.3692 3.91955 19.1815 3.95753 19L4.95503 13.165L0.717534 9.04749C0.551499 8.8853 0.434112 8.67991 0.378626 8.45453C0.323139 8.22915 0.331763 7.99275 0.403523 7.77201C0.475283 7.55127 0.607321 7.35498 0.784732 7.20531C0.962143 7.05565 1.17786 6.95855 1.40753 6.92499L7.25003 6.07749L9.86753 0.767495C9.96847 0.554556 10.1278 0.374638 10.3269 0.248652C10.5261 0.122666 10.7569 0.0557861 10.9925 0.0557861C11.2282 0.0557861 11.459 0.122666 11.6581 0.248652C11.8573 0.374638 12.0166 0.554556 12.1175 0.767495L14.75 6.07749L20.6075 6.93249C20.8372 6.96605 21.0529 7.06314 21.2303 7.21281C21.4077 7.36248 21.5398 7.55877 21.6115 7.77951C21.6833 8.00025 21.6919 8.23665 21.6364 8.46203C21.581 8.68741 21.4636 8.8928 21.2975 9.05499L17.06 13.1875L18.0425 19C18.0817 19.2277 18.0567 19.4617 17.9703 19.676C17.884 19.8903 17.7398 20.0763 17.5538 20.2133C17.3677 20.3503 17.1473 20.4328 16.917 20.4517C16.6868 20.4705 16.4558 20.4249 16.25 20.32L11 17.5675L5.75003 20.32C5.5776 20.4257 5.38189 20.4875 5.18003 20.5V20.5ZM2.14253 8.33499L6.10253 12.1975C6.24804 12.3379 6.35693 12.5118 6.41969 12.704C6.48244 12.8962 6.49716 13.1008 6.46253 13.3L5.52503 18.745L10.4225 16.1725C10.6007 16.0792 10.7989 16.0305 11 16.0305C11.2012 16.0305 11.3993 16.0792 11.5775 16.1725L16.475 18.745L15.5375 13.2925C15.5029 13.0933 15.5176 12.8887 15.5804 12.6965C15.6431 12.5043 15.752 12.3304 15.8975 12.19L19.8575 8.32749L14.3825 7.53249C14.1826 7.50334 13.9928 7.42596 13.8295 7.30706C13.6661 7.18815 13.5342 7.03128 13.445 6.84999L11 1.89999L8.55503 6.85749C8.46587 7.03878 8.33393 7.19565 8.1706 7.31456C8.00726 7.43346 7.81745 7.51084 7.61753 7.53999L2.14253 8.33499Z" fill="#F66F4D"/>
</svg>
